<svg width="77" height="25" viewBox="0 0 77 25" fill="none" xmlns="http://www.w3.org/2000/svg">
<path d="M12.7307 14.3279L13.8433 15.1199C12.957 16.4965 11.109 17.5714 8.9027 17.5714C4.92385 17.5714 1.94442 14.6108 1.94442 10.5565C1.94442 6.50222 4.92385 3.54165 8.9027 3.54165C10.5621 3.54165 12.3536 4.16394 13.5227 5.65365L12.3347 6.53993C11.8067 5.67251 10.317 4.78622 8.9027 4.78622C5.4707 4.78622 3.41528 7.48279 3.41528 10.5565C3.41528 13.6302 5.4707 16.3268 8.9027 16.3268C10.2981 16.3268 11.7313 15.8742 12.7307 14.3279ZM17.2018 2.97594V17.2319H15.9572V2.97594H17.2018ZM29.1239 12.8194C29.1239 15.4782 27.1816 17.4582 24.4285 17.4582C21.6942 17.4582 19.7519 15.4782 19.7519 12.8194C19.7519 10.1605 21.6942 8.18051 24.4285 8.18051C27.1816 8.18051 29.1239 10.1605 29.1239 12.8194ZM27.7662 12.8194C27.7662 10.8394 26.4839 9.31193 24.4285 9.31193C22.3919 9.31193 21.1096 10.8394 21.1096 12.8194C21.1096 14.7994 22.3919 16.3268 24.4285 16.3268C26.4839 16.3268 27.7662 14.7994 27.7662 12.8194ZM37.1716 9.76451L36.059 10.4999C35.6819 9.78336 35.0596 9.31193 34.1545 9.31193C33.287 9.31193 32.3253 9.68908 32.3253 10.6319C32.3253 11.4616 32.9099 11.7634 34.0602 12.0274L35.3236 12.3291C36.5493 12.6119 37.4733 13.4982 37.4733 14.7428C37.4733 16.6662 35.7573 17.4582 34.0413 17.4582C32.7025 17.4582 31.4768 16.9868 30.647 15.7422L31.7219 15.0068C32.231 15.7988 33.0042 16.3268 34.0413 16.3268C35.0596 16.3268 36.1156 15.8742 36.1156 14.8559C36.1156 13.9696 35.3613 13.6679 34.4373 13.4416L33.2305 13.1588C32.627 13.0079 30.9676 12.5176 30.9676 10.8394C30.9676 9.01022 32.5705 8.18051 34.2299 8.18051C35.4556 8.18051 36.6059 8.61422 37.1716 9.76451ZM47.6332 13.1588H40.2789C40.4298 14.9314 41.7686 16.3268 43.5224 16.3268C44.8424 16.3268 45.8606 15.5914 46.3509 14.7994L47.3126 15.5914C46.2755 16.9114 44.9744 17.4582 43.5224 17.4582C40.9012 17.4582 38.9589 15.4782 38.9589 12.8194C38.9589 10.1605 40.9012 8.18051 43.4092 8.18051C46.0869 8.19936 47.6332 10.1794 47.6332 12.5931V13.1588ZM40.3166 12.1405H46.2755C46.2755 10.4622 45.2006 9.31193 43.4092 9.31193C41.7875 9.31193 40.3166 10.6885 40.3166 12.1405Z" fill="white"/>
<path fill-rule="evenodd" clip-rule="evenodd" d="M71.0649 6.68322C71.1504 6.59781 71.2183 6.49639 71.2646 6.38475C71.3109 6.27312 71.3348 6.15345 71.3349 6.03259C71.335 5.91172 71.3112 5.79203 71.265 5.68033C71.2189 5.56864 71.1511 5.46714 71.0657 5.38162C70.9803 5.2961 70.8789 5.22825 70.7672 5.18193C70.6556 5.1356 70.5359 5.11172 70.4151 5.11165C70.2942 5.11158 70.1745 5.13531 70.0628 5.18149C69.9511 5.22768 69.8496 5.29541 69.7641 5.38082L64.2137 10.9312L58.6649 5.38082C58.4922 5.20811 58.258 5.11108 58.0137 5.11108C57.7695 5.11108 57.5352 5.20811 57.3625 5.38082C57.1898 5.55353 57.0928 5.78777 57.0928 6.03202C57.0928 6.27627 57.1898 6.51051 57.3625 6.68322L62.9129 12.232L57.3625 17.7808C57.277 17.8663 57.2092 17.9679 57.1629 18.0796C57.1166 18.1913 57.0928 18.3111 57.0928 18.432C57.0928 18.553 57.1166 18.6727 57.1629 18.7844C57.2092 18.8962 57.277 18.9977 57.3625 19.0832C57.5352 19.2559 57.7695 19.353 58.0137 19.353C58.1346 19.353 58.2544 19.3291 58.3661 19.2829C58.4779 19.2366 58.5794 19.1687 58.6649 19.0832L64.2137 13.5328L69.7641 19.0832C69.9368 19.2557 70.171 19.3525 70.4151 19.3524C70.6592 19.3522 70.8932 19.2551 71.0657 19.0824C71.2382 18.9097 71.335 18.6756 71.3349 18.4315C71.3347 18.1874 71.2376 17.9533 71.0649 17.7808L65.5145 12.232L71.0649 6.68322Z" fill="white"/>
</svg>
