<svg width="23" height="22" viewBox="0 0 23 22" fill="none" xmlns="http://www.w3.org/2000/svg">
<path d="M21.3936 0.0625H1.62793C1.15259 0.0625 0.768555 0.453516 0.768555 0.9375V21.0625C0.768555 21.5465 1.15259 21.9375 1.62793 21.9375H21.3936C21.8689 21.9375 22.2529 21.5465 22.2529 21.0625V0.9375C22.2529 0.453516 21.8689 0.0625 21.3936 0.0625ZM20.5342 20.1875H15.5901V13.4664H18.3831L18.802 10.166H15.5901V8.05781C15.5901 7.10078 15.8506 6.45 17.196 6.45H18.9121V3.49688C18.614 3.45586 17.5962 3.36563 16.4092 3.36563C13.9331 3.36563 12.2385 4.90508 12.2385 7.72969V10.1633H9.44019V13.4637H12.2412V20.1875H2.4873V1.8125H20.5342V20.1875Z" fill="white"/>
</svg>
