<svg width="25" height="20" viewBox="0 0 25 20" fill="none" xmlns="http://www.w3.org/2000/svg">
<path d="M14.9274 10L10.917 12.3334V7.66669L14.9274 10Z" fill="white" stroke="white" stroke-width="1.75" stroke-linecap="round" stroke-linejoin="round"/>
<path d="M1.17725 10.826V9.17401C1.17725 5.79651 1.17725 4.10717 2.21423 3.02101C3.25235 1.93367 4.88631 1.88701 8.15308 1.79251C9.69996 1.74817 11.2812 1.71667 12.6356 1.71667C13.99 1.71667 15.5701 1.74817 17.1181 1.79251C20.3849 1.88701 22.0188 1.93367 23.0558 3.02101C24.0928 4.10834 24.0939 5.79767 24.0939 9.17401V10.8248C24.0939 14.2035 24.0939 15.8917 23.0569 16.979C22.0188 18.0652 20.386 18.113 17.1181 18.2063C15.5712 18.2518 13.99 18.2833 12.6356 18.2833C11.2812 18.2833 9.7011 18.2518 8.15308 18.2063C4.88631 18.113 3.25235 18.0663 2.21423 16.979C1.1761 15.8917 1.17725 14.2023 1.17725 10.826Z" stroke="white" stroke-width="1.75"/>
</svg>
