<svg width="24" height="24" viewBox="0 0 24 24" fill="none" xmlns="http://www.w3.org/2000/svg">
<path d="M18.1667 4.36967C17.8947 4.36967 17.6289 4.45178 17.4028 4.60562C17.1767 4.75945 17.0004 4.9781 16.8964 5.23392C16.7923 5.48973 16.7651 5.77123 16.8181 6.0428C16.8712 6.31437 17.0021 6.56383 17.1944 6.75962C17.3867 6.95542 17.6317 7.08875 17.8984 7.14277C18.1652 7.19679 18.4416 7.16907 18.6929 7.06311C18.9441 6.95714 19.1589 6.7777 19.31 6.54747C19.461 6.31724 19.5417 6.04657 19.5417 5.76967C19.5417 5.39837 19.3968 5.04228 19.139 4.77973C18.8811 4.51717 18.5314 4.36967 18.1667 4.36967ZM23.4375 7.19301C23.4152 6.22502 23.2372 5.26731 22.9104 4.35801C22.6191 3.58 22.1656 2.8755 21.5813 2.29301C21.0139 1.695 20.3203 1.23621 19.5531 0.951341C18.6624 0.608529 17.7208 0.423086 16.7688 0.403008C15.5542 0.333008 15.1646 0.333008 12.0479 0.333008C8.93127 0.333008 8.54168 0.333008 7.3271 0.403008C6.37509 0.423086 5.43343 0.608529 4.54272 0.951341C3.77694 1.2391 3.084 1.6975 2.5146 2.29301C1.92728 2.87072 1.47668 3.57685 1.19689 4.35801C0.860201 5.26491 0.678069 6.22369 0.65835 7.19301C0.5896 8.42968 0.5896 8.82634 0.5896 11.9997C0.5896 15.173 0.5896 15.5697 0.65835 16.8063C0.678069 17.7757 0.860201 18.7344 1.19689 19.6413C1.47668 20.4225 1.92728 21.1286 2.5146 21.7063C3.084 22.3019 3.77694 22.7603 4.54272 23.048C5.43343 23.3908 6.37509 23.5763 7.3271 23.5963C8.54168 23.6663 8.93127 23.6663 12.0479 23.6663C15.1646 23.6663 15.5542 23.6663 16.7688 23.5963C17.7208 23.5763 18.6624 23.3908 19.5531 23.048C20.3203 22.7631 21.0139 22.3043 21.5813 21.7063C22.1682 21.126 22.6221 20.4209 22.9104 19.6413C23.2372 18.732 23.4152 17.7743 23.4375 16.8063C23.4375 15.5697 23.5063 15.173 23.5063 11.9997C23.5063 8.82634 23.5063 8.42968 23.4375 7.19301ZM21.375 16.6663C21.3667 17.4069 21.2349 18.1407 20.9854 18.8363C20.8025 19.3441 20.5086 19.8028 20.1261 20.178C19.7544 20.5636 19.3048 20.8622 18.8084 21.053C18.1251 21.3071 17.4044 21.4412 16.6771 21.4497C15.5313 21.508 15.1073 21.5197 12.0938 21.5197C9.08023 21.5197 8.65627 21.5197 7.51043 21.4497C6.7552 21.4641 6.0032 21.3457 5.28752 21.0997C4.81289 20.8991 4.38386 20.6013 4.0271 20.2247C3.64678 19.8499 3.35661 19.3907 3.17918 18.883C2.89944 18.1774 2.74427 17.4269 2.72085 16.6663C2.72085 15.4997 2.6521 15.068 2.6521 11.9997C2.6521 8.93134 2.6521 8.49967 2.72085 7.33301C2.72599 6.57591 2.86173 5.82561 3.12189 5.11634C3.32361 4.6239 3.63324 4.18494 4.0271 3.83301C4.37522 3.43187 4.80545 3.11329 5.28752 2.89967C5.98596 2.64306 6.7221 2.50893 7.4646 2.50301C8.61043 2.50301 9.03439 2.43301 12.0479 2.43301C15.0615 2.43301 15.4854 2.43301 16.6313 2.50301C17.3586 2.5115 18.0793 2.64563 18.7625 2.89967C19.2832 3.09644 19.7506 3.41633 20.1261 3.83301C20.5016 4.19138 20.795 4.62953 20.9854 5.11634C21.2401 5.82676 21.3719 6.57675 21.375 7.33301C21.4323 8.49967 21.4438 8.93134 21.4438 11.9997C21.4438 15.068 21.4323 15.4997 21.375 16.6663ZM12.0479 6.01467C10.8858 6.01698 9.75049 6.36996 8.78535 7.029C7.82021 7.68804 7.06858 8.62357 6.62543 9.71739C6.18229 10.8112 6.06751 12.0142 6.29561 13.1744C6.52372 14.3346 7.08445 15.4 7.90698 16.2358C8.7295 17.0717 9.77691 17.6405 10.9168 17.8705C12.0568 18.1005 13.2381 17.9813 14.3115 17.528C15.3849 17.0746 16.3023 16.3075 16.9477 15.3235C17.5931 14.3396 17.9375 13.1829 17.9375 11.9997C17.939 11.2123 17.7876 10.4324 17.4921 9.70479C17.1965 8.9772 16.7625 8.31629 16.2152 7.76007C15.6678 7.20385 15.0179 6.7633 14.3027 6.46376C13.5875 6.16422 12.8212 6.0116 12.0479 6.01467ZM12.0479 15.8847C11.2933 15.8847 10.5556 15.6568 9.92809 15.2299C9.30061 14.803 8.81155 14.1963 8.52276 13.4864C8.23396 12.7765 8.1584 11.9954 8.30562 11.2417C8.45285 10.4881 8.81625 9.79589 9.34988 9.25257C9.8835 8.70924 10.5634 8.33923 11.3035 8.18932C12.0437 8.03942 12.8109 8.11636 13.5081 8.4104C14.2053 8.70445 14.8012 9.2024 15.2205 9.84128C15.6398 10.4802 15.8636 11.2313 15.8636 11.9997C15.8636 12.5099 15.7649 13.0151 15.5731 13.4864C15.3814 13.9578 15.1003 14.386 14.746 14.7468C14.3917 15.1075 13.971 15.3937 13.5081 15.5889C13.0452 15.7842 12.549 15.8847 12.0479 15.8847Z" fill="white"/>
</svg>
