<svg width="22" height="22" viewBox="0 0 22 22" fill="none" xmlns="http://www.w3.org/2000/svg">
<path d="M20.2761 0.0625H2.24536C1.29199 0.0625 0.518555 0.85 0.518555 1.8207V20.1793C0.518555 21.15 1.29199 21.9375 2.24536 21.9375H20.2761C21.2295 21.9375 22.0029 21.15 22.0029 20.1793V1.8207C22.0029 0.85 21.2295 0.0625 20.2761 0.0625ZM20.2761 20.1875C8.25024 20.1848 2.2373 20.182 2.2373 20.1793C2.23999 7.93477 2.24268 1.8125 2.24536 1.8125C14.2712 1.81523 20.2842 1.81797 20.2842 1.8207C20.2815 14.0652 20.2788 20.1875 20.2761 20.1875ZM3.70361 8.26289H6.89136V18.7027H3.70361V8.26289ZM5.29883 6.83555C6.31665 6.83555 7.14648 5.99336 7.14648 4.9543C7.14648 4.70725 7.09869 4.46262 7.00584 4.23437C6.91299 4.00613 6.77689 3.79874 6.60532 3.62405C6.43375 3.44936 6.23006 3.31079 6.0059 3.21625C5.78173 3.12171 5.54147 3.07305 5.29883 3.07305C5.05619 3.07305 4.81593 3.12171 4.59176 3.21625C4.36759 3.31079 4.16391 3.44936 3.99234 3.62405C3.82077 3.79874 3.68467 4.00613 3.59182 4.23437C3.49896 4.46262 3.45117 4.70725 3.45117 4.9543C3.44849 5.99336 4.27563 6.83555 5.29883 6.83555ZM12.0745 13.5375C12.0745 12.1758 12.3296 10.8578 13.9866 10.8578C15.6194 10.8578 15.6436 12.4137 15.6436 13.625V18.7027H18.8286V12.977C18.8286 10.166 18.2324 8.00312 15.0071 8.00312C13.4575 8.00312 12.4182 8.86992 11.9912 9.69023H11.9482V8.26289H8.8894V18.7027H12.0745V13.5375Z" fill="white"/>
</svg>
