<svg width="75" height="74" viewBox="0 0 75 74" fill="none" xmlns="http://www.w3.org/2000/svg">
<path d="M29.7916 48.0506V25.9493C29.7921 25.6727 29.8669 25.4014 30.0083 25.1638C30.1496 24.9261 30.3523 24.7308 30.5951 24.5984C30.8378 24.466 31.1117 24.4013 31.3881 24.4111C31.6644 24.421 31.9331 24.5049 32.1658 24.6543L49.3585 35.7018C49.5762 35.8413 49.7553 36.0333 49.8793 36.2601C50.0034 36.487 50.0684 36.7414 50.0684 36.9999C50.0684 37.2585 50.0034 37.5129 49.8793 37.7397C49.7553 37.9665 49.5762 38.1585 49.3585 38.298L32.1658 49.3487C31.9331 49.498 31.6644 49.582 31.3881 49.5918C31.1117 49.6016 30.8378 49.5369 30.5951 49.4045C30.3523 49.2721 30.1496 49.0768 30.0083 48.8392C29.8669 48.6015 29.7921 48.3302 29.7916 48.0537V48.0506Z" fill="white"/>
<path d="M3.58337 37.0002C3.58337 18.2689 18.7688 3.0835 37.5 3.0835C56.2313 3.0835 71.4167 18.2689 71.4167 37.0002C71.4167 55.7314 56.2313 70.9168 37.5 70.9168C18.7688 70.9168 3.58337 55.7314 3.58337 37.0002ZM37.5 7.7085C29.7314 7.7085 22.281 10.7946 16.7877 16.2878C11.2945 21.7811 8.20837 29.2315 8.20837 37.0002C8.20837 44.7688 11.2945 52.2192 16.7877 57.7125C22.281 63.2058 29.7314 66.2918 37.5 66.2918C45.2687 66.2918 52.7191 63.2058 58.2124 57.7125C63.7056 52.2192 66.7917 44.7688 66.7917 37.0002C66.7917 29.2315 63.7056 21.7811 58.2124 16.2878C52.7191 10.7946 45.2687 7.7085 37.5 7.7085Z" fill="white"/>
</svg>
