<svg width="13" height="13" viewBox="0 0 13 13" fill="none" xmlns="http://www.w3.org/2000/svg">
<path d="M6.79492 0.5C7.59057 0.5 8.35363 0.81607 8.91624 1.37868C9.47885 1.94129 9.79492 2.70435 9.79492 3.5C9.79492 4.29565 9.47885 5.05871 8.91624 5.62132C8.35363 6.18393 7.59057 6.5 6.79492 6.5C5.99927 6.5 5.23621 6.18393 4.6736 5.62132C4.11099 5.05871 3.79492 4.29565 3.79492 3.5C3.79492 2.70435 4.11099 1.94129 4.6736 1.37868C5.23621 0.81607 5.99927 0.5 6.79492 0.5ZM6.79492 8C10.1099 8 12.7949 9.3425 12.7949 11V12.5H0.794922V11C0.794922 9.3425 3.47992 8 6.79492 8Z" fill="white"/>
</svg>
