<svg width="14" height="15" viewBox="0 0 14 15" fill="none" xmlns="http://www.w3.org/2000/svg">
<path d="M12.2174 9.94499L10.3124 9.72749C10.0884 9.70119 9.86138 9.72598 9.64834 9.80003C9.4353 9.87407 9.24182 9.99543 9.08242 10.155L7.70242 11.535C5.57331 10.4522 3.84276 8.7216 2.75992 6.59249L4.14742 5.20499C4.46992 4.88249 4.62742 4.43249 4.57492 3.97499L4.35742 2.08499C4.3149 1.71913 4.13932 1.38167 3.8641 1.13688C3.58888 0.892087 3.23325 0.757055 2.86492 0.757493H1.56742C0.719922 0.757493 0.0149219 1.46249 0.0674219 2.30999C0.464922 8.71499 5.58742 13.83 11.9849 14.2275C12.8324 14.28 13.5374 13.575 13.5374 12.7275V11.43C13.5449 10.6725 12.9749 10.035 12.2174 9.94499Z" fill="white"/>
</svg>
