<svg width="163" height="86" viewBox="0 0 163 86" fill="none" xmlns="http://www.w3.org/2000/svg">
<path d="M81.3859 37.348C77.2915 37.348 73.8234 35.9271 70.9817 33.0855C68.1401 30.2438 66.7192 26.7758 66.7192 22.6813C66.7192 18.5869 68.1401 15.1188 70.9817 12.2771C73.8234 9.43548 77.2915 8.01465 81.3859 8.01465C83.4942 8.01465 85.5109 8.44976 87.4359 9.31998C89.3609 10.1902 91.0109 11.4356 92.3859 13.0563V8.01465H96.0526V20.848H83.2192V17.1813H90.9192C89.9415 15.4702 88.605 14.1258 86.9097 13.148C85.2145 12.1702 83.3732 11.6813 81.3859 11.6813C78.3303 11.6813 75.7331 12.7508 73.5942 14.8896C71.4553 17.0285 70.3859 19.6258 70.3859 22.6813C70.3859 25.7369 71.4553 28.3341 73.5942 30.473C75.7331 32.6119 78.3303 33.6813 81.3859 33.6813C83.7387 33.6813 85.8623 33.0091 87.7567 31.6646C89.6512 30.3202 90.9803 28.548 91.7442 26.348H95.5942C94.7387 29.5869 92.997 32.2299 90.3692 34.2771C87.7415 36.3244 84.747 37.348 81.3859 37.348Z" fill="white"/>
<path d="M19.2409 58.5822L23.183 72.6347H23.2294L27.357 58.5822H29.3512L33.4789 72.6347H33.5253L37.421 58.5822H39.2761L34.4296 75H32.4818L28.3541 60.9475H28.3077L24.1801 75H22.2322L17.3857 58.5822H19.2409ZM46.2844 68.3448H47.0497V68.0665C47.0497 66.1882 46.1453 65.2606 44.267 65.2606C42.9916 65.2606 41.8785 65.7012 40.951 66.536L40.0234 65.4461C41.0206 64.4258 42.5742 63.8693 44.6148 63.8693C46.7482 63.8693 48.5802 65.0751 48.5802 67.7187V72.5652C48.5802 73.4 48.6729 74.4203 48.7657 75H47.2816C47.1888 74.4667 47.1424 73.8174 47.1424 73.2376H47.0961C46.2149 74.6754 45.0091 75.2783 43.2699 75.2783C41.3452 75.2783 39.5365 74.2116 39.5365 72.1014C39.5365 68.5767 43.6873 68.3448 46.2844 68.3448ZM47.0497 69.597H46.2613C44.7076 69.597 41.2061 69.7129 41.2061 71.8927C41.2061 73.3304 42.5278 73.8869 43.7569 73.8869C45.983 73.8869 47.0497 72.3101 47.0497 70.3854V69.597ZM57.7295 64.1476V65.5389H54.599V71.9391C54.599 73.5623 55.2251 73.8869 56.1758 73.8869C56.7092 73.8869 57.2889 73.7246 57.7527 73.4695L57.8222 74.8841C57.2657 75.1391 56.5236 75.2783 55.7584 75.2783C54.599 75.2783 53.0685 74.7681 53.0685 72.3796V65.5389H50.7728V64.1476H53.0685V61.0866H54.599V64.1476H57.7295ZM68.9768 65.7476L67.7246 66.6983C67.2145 65.9099 66.2174 65.2606 65.0115 65.2606C62.4839 65.2143 60.9303 67.0926 60.9303 69.5738C60.9303 72.055 62.4839 73.9333 65.0115 73.8869C66.2174 73.8869 67.2145 73.2376 67.7246 72.4492L68.9768 73.4C67.9102 74.6522 66.4724 75.2551 65.0115 75.2783C61.4636 75.3246 59.2607 72.8434 59.2607 69.5738C59.2607 66.3041 61.4636 63.8229 65.0115 63.8693C66.4724 63.8925 67.9102 64.4954 68.9768 65.7476ZM71.0041 75V57.4691H72.5345V65.8867H72.5809C73.2534 64.7041 74.7839 63.8693 76.2216 63.8693C78.9811 63.8693 80.3028 65.423 80.3028 68.1129V75H78.7724V68.9941C78.7724 66.5824 78.0999 65.2606 75.8274 65.2606C75.5027 65.2606 72.5345 65.4693 72.5345 69.4346V75H71.0041ZM96.5348 68.3448H97.3V68.0665C97.3 66.1882 96.3956 65.2606 94.5173 65.2606C93.2419 65.2606 92.1289 65.7012 91.2013 66.536L90.2737 65.4461C91.2709 64.4258 92.8245 63.8693 94.8652 63.8693C96.9985 63.8693 98.8305 65.0751 98.8305 67.7187V72.5652C98.8305 73.4 98.9232 74.4203 99.016 75H97.5319C97.4391 74.4667 97.3928 73.8174 97.3928 73.2376H97.3464C96.4652 74.6754 95.2594 75.2783 93.5202 75.2783C91.5955 75.2783 89.7868 74.2116 89.7868 72.1014C89.7868 68.5767 93.9376 68.3448 96.5348 68.3448ZM97.3 69.597H96.5116C94.9579 69.597 91.4564 69.7129 91.4564 71.8927C91.4564 73.3304 92.7781 73.8869 94.0072 73.8869C96.2333 73.8869 97.3 72.3101 97.3 70.3854V69.597ZM102.067 78.3856L103.203 77.1798C104.107 78.3856 105.615 79.174 107.354 79.174C110.461 79.174 111.574 77.2493 111.574 74.9072V72.9594H111.528C110.554 74.4203 109.046 75 107.47 75C104.339 75 101.812 72.6579 101.812 69.481C101.812 66.3273 104.13 63.8693 107.33 63.8693C108.629 63.8693 110.275 64.2635 111.528 65.9563H111.574V64.1476H113.105V74.9072C113.105 77.2725 112.154 80.5654 107.284 80.5654C105.128 80.5654 103.458 79.8697 102.067 78.3856ZM103.481 69.4346C103.481 71.7072 105.243 73.6087 107.516 73.6087C109.742 73.6087 111.713 71.9391 111.62 69.4346C111.62 67.1621 110.067 65.2606 107.516 65.2606C105.243 65.2606 103.481 67.1621 103.481 69.4346ZM122.736 68.3448H123.501V68.0665C123.501 66.1882 122.596 65.2606 120.718 65.2606C119.443 65.2606 118.33 65.7012 117.402 66.536L116.475 65.4461C117.472 64.4258 119.025 63.8693 121.066 63.8693C123.199 63.8693 125.031 65.0751 125.031 67.7187V72.5652C125.031 73.4 125.124 74.4203 125.217 75H123.733C123.64 74.4667 123.594 73.8174 123.594 73.2376H123.547C122.666 74.6754 121.46 75.2783 119.721 75.2783C117.796 75.2783 115.988 74.2116 115.988 72.1014C115.988 68.5767 120.138 68.3448 122.736 68.3448ZM123.501 69.597H122.712C121.159 69.597 117.657 69.7129 117.657 71.8927C117.657 73.3304 118.979 73.8869 120.208 73.8869C122.434 73.8869 123.501 72.3101 123.501 70.3854V69.597ZM130.447 64.1476V75H128.917V64.1476H130.447ZM130.795 59.9735C130.795 60.6228 130.238 61.0866 129.682 61.0866C129.125 61.0866 128.569 60.6228 128.569 59.9735C128.569 59.3243 129.125 58.8605 129.682 58.8605C130.238 58.8605 130.795 59.3243 130.795 59.9735ZM134.024 64.1476H135.601C135.67 64.7273 135.67 65.307 135.67 65.8867H135.717C136.389 64.7041 137.919 63.8693 139.357 63.8693C142.117 63.8693 143.438 65.423 143.438 68.1129V75H141.908V68.9941C141.908 66.5824 141.235 65.2606 138.963 65.2606C138.638 65.2606 135.67 65.4693 135.67 69.4346V75H134.14V66.536C134.14 65.9563 134.07 64.936 134.024 64.1476Z" fill="white"/>
</svg>
