<svg width="31" height="30" viewBox="0 0 31 30" fill="none" xmlns="http://www.w3.org/2000/svg">
<path d="M15.3859 29.348C11.2915 29.348 7.8234 27.9271 4.98174 25.0855C2.14007 22.2438 0.719238 18.7758 0.719238 14.6813C0.719238 10.5869 2.14007 7.11881 4.98174 4.27715C7.8234 1.43548 11.2915 0.0146484 15.3859 0.0146484C17.4942 0.0146484 19.5109 0.449759 21.4359 1.31998C23.3609 2.1902 25.0109 3.43565 26.3859 5.05631V0.0146484H30.0526V12.848H17.2192V9.18131H24.9192C23.9415 7.4702 22.605 6.12576 20.9097 5.14798C19.2145 4.1702 17.3732 3.68131 15.3859 3.68131C12.3303 3.68131 9.73313 4.75076 7.59424 6.88965C5.45535 9.02854 4.3859 11.6258 4.3859 14.6813C4.3859 17.7369 5.45535 20.3341 7.59424 22.473C9.73313 24.6119 12.3303 25.6813 15.3859 25.6813C17.7387 25.6813 19.8623 25.0091 21.7567 23.6646C23.6512 22.3202 24.9803 20.548 25.7442 18.348H29.5942C28.7387 21.5869 26.997 24.2299 24.3692 26.2771C21.7415 28.3244 18.747 29.348 15.3859 29.348Z" fill="white"/>
</svg>
