<svg width="24" height="24" viewBox="0 0 24 24" fill="none" xmlns="http://www.w3.org/2000/svg">
<path d="M18.1664 4.37001C17.8945 4.37001 17.6286 4.45212 17.4025 4.60595C17.1764 4.75979 17.0002 4.97844 16.8961 5.23425C16.792 5.49007 16.7648 5.77156 16.8179 6.04314C16.8709 6.31471 17.0019 6.56417 17.1942 6.75996C17.3865 6.95575 17.6315 7.08909 17.8982 7.14311C18.1649 7.19713 18.4414 7.1694 18.6926 7.06344C18.9439 6.95748 19.1586 6.77804 19.3097 6.54781C19.4608 6.31758 19.5414 6.0469 19.5414 5.77001C19.5414 5.39871 19.3966 5.04261 19.1387 4.78006C18.8808 4.51751 18.5311 4.37001 18.1664 4.37001ZM23.4373 7.19334C23.415 6.22536 23.2369 5.26765 22.9102 4.35834C22.6188 3.58033 22.1654 2.87584 21.581 2.29334C21.0136 1.69534 20.3201 1.23655 19.5529 0.951677C18.6622 0.608864 17.7205 0.423422 16.7685 0.403343C15.5539 0.333343 15.1644 0.333344 12.0477 0.333344C8.93102 0.333344 8.54144 0.333343 7.32686 0.403343C6.37484 0.423422 5.43319 0.608864 4.54248 0.951677C3.77669 1.23943 3.08376 1.69783 2.51436 2.29334C1.92703 2.87105 1.47643 3.57719 1.19665 4.35834C0.859956 5.26524 0.677825 6.22402 0.658105 7.19334C0.589355 8.43001 0.589355 8.82668 0.589355 12C0.589355 15.1733 0.589355 15.57 0.658105 16.8067C0.677825 17.776 0.859956 18.7348 1.19665 19.6417C1.47643 20.4228 1.92703 21.129 2.51436 21.7067C3.08376 22.3022 3.77669 22.7606 4.54248 23.0483C5.43319 23.3912 6.37484 23.5766 7.32686 23.5967C8.54144 23.6667 8.93102 23.6667 12.0477 23.6667C15.1644 23.6667 15.5539 23.6667 16.7685 23.5967C17.7205 23.5766 18.6622 23.3912 19.5529 23.0483C20.3201 22.7635 21.0136 22.3047 21.581 21.7067C22.168 21.1264 22.6218 20.4212 22.9102 19.6417C23.2369 18.7324 23.415 17.7747 23.4373 16.8067C23.4373 15.57 23.506 15.1733 23.506 12C23.506 8.82668 23.506 8.43001 23.4373 7.19334ZM21.3748 16.6667C21.3664 17.4072 21.2347 18.141 20.9852 18.8367C20.8022 19.3444 20.5084 19.8032 20.1258 20.1783C19.7542 20.5639 19.3045 20.8625 18.8081 21.0533C18.1248 21.3074 17.4042 21.4415 16.6769 21.45C15.531 21.5083 15.1071 21.52 12.0935 21.52C9.07998 21.52 8.65602 21.52 7.51019 21.45C6.75496 21.4644 6.00295 21.346 5.28727 21.1C4.81265 20.8994 4.38362 20.6016 4.02686 20.225C3.64654 19.8502 3.35636 19.3911 3.17894 18.8833C2.89919 18.1777 2.74403 17.4273 2.72061 16.6667C2.72061 15.5 2.65186 15.0683 2.65186 12C2.65186 8.93168 2.65186 8.50001 2.72061 7.33334C2.72574 6.57624 2.86149 5.82595 3.12165 5.11668C3.32337 4.62424 3.63299 4.18528 4.02686 3.83334C4.37498 3.43221 4.80521 3.11362 5.28727 2.90001C5.98572 2.64339 6.72185 2.50927 7.46436 2.50334C8.61019 2.50334 9.03415 2.43334 12.0477 2.43334C15.0612 2.43334 15.4852 2.43334 16.631 2.50334C17.3584 2.51184 18.079 2.64596 18.7623 2.90001C19.283 3.09677 19.7503 3.41666 20.1258 3.83334C20.5013 4.19172 20.7947 4.62987 20.9852 5.11668C21.2399 5.8271 21.3717 6.57709 21.3748 7.33334C21.4321 8.50001 21.4435 8.93168 21.4435 12C21.4435 15.0683 21.4321 15.5 21.3748 16.6667ZM12.0477 6.01501C10.8856 6.01732 9.75025 6.37029 8.78511 7.02933C7.81996 7.68837 7.06833 8.62391 6.62519 9.71772C6.18204 10.8115 6.06727 12.0146 6.29537 13.1748C6.52347 14.335 7.08421 15.4003 7.90674 16.2362C8.72926 17.072 9.77666 17.6409 10.9166 17.8709C12.0565 18.1008 13.2378 17.9816 14.3112 17.5283C15.3847 17.075 16.302 16.3079 16.9474 15.3239C17.5928 14.3399 17.9373 13.1832 17.9373 12C17.9388 11.2126 17.7874 10.4327 17.4918 9.70513C17.1962 8.97753 16.7623 8.31662 16.2149 7.7604C15.6676 7.20418 15.0176 6.76364 14.3025 6.46409C13.5873 6.16455 12.821 6.01193 12.0477 6.01501ZM12.0477 15.885C11.293 15.885 10.5553 15.6572 9.92784 15.2303C9.30037 14.8034 8.81131 14.1966 8.52251 13.4867C8.23372 12.7768 8.15815 11.9957 8.30538 11.2421C8.45261 10.4885 8.81601 9.79623 9.34964 9.2529C9.88326 8.70957 10.5631 8.33956 11.3033 8.18966C12.0435 8.03976 12.8107 8.11669 13.5079 8.41074C14.2051 8.70479 14.801 9.20273 15.2203 9.84162C15.6395 10.4805 15.8633 11.2316 15.8633 12C15.8633 12.5102 15.7646 13.0154 15.5729 13.4867C15.3811 13.9581 15.1001 14.3864 14.7457 14.7471C14.3914 15.1079 13.9708 15.394 13.5079 15.5893C13.0449 15.7845 12.5488 15.885 12.0477 15.885Z" fill="white"/>
</svg>
