<svg width="25" height="24" viewBox="0 0 25 24" fill="none" xmlns="http://www.w3.org/2000/svg">
<g clip-path="url(#clip0_226_1232)">
<path fill-rule="evenodd" clip-rule="evenodd" d="M15.5 4.19402V19.806C15.5001 20.0082 15.4444 20.2065 15.3391 20.3792C15.2338 20.5518 15.083 20.6921 14.9031 20.7845C14.7233 20.877 14.5215 20.9182 14.3198 20.9034C14.1182 20.8887 13.9245 20.8187 13.76 20.701L7.18 16H4.5C3.96957 16 3.46086 15.7893 3.08579 15.4142C2.71071 15.0392 2.5 14.5304 2.5 14V10C2.5 9.46958 2.71071 8.96088 3.08579 8.5858C3.46086 8.21073 3.96957 8.00002 4.5 8.00002H7.18L13.76 3.30002C13.9244 3.18242 14.118 3.11239 14.3196 3.09761C14.5212 3.08283 14.7229 3.12388 14.9027 3.21625C15.0825 3.30862 15.2333 3.44874 15.3387 3.62123C15.4441 3.79371 15.4999 3.99189 15.5 4.19402ZM13.5 5.94402L8.342 9.62602C8.00311 9.86873 7.59684 9.99949 7.18 10H4.5V14H7.18C7.59662 14 8.00287 14.13 8.342 14.372L13.5 18.057V5.94402ZM18.755 6.86102C18.9319 6.66344 19.18 6.54423 19.4448 6.5296C19.7096 6.51497 19.9694 6.60613 20.167 6.78302C20.901 7.43958 21.4881 8.24361 21.8901 9.14259C22.2922 10.0416 22.5 11.0152 22.5 12C22.5 12.9848 22.2922 13.9585 21.8901 14.8574C21.4881 15.7564 20.901 16.5605 20.167 17.217C20.0694 17.306 19.9551 17.3748 19.8308 17.4195C19.7064 17.4641 19.5745 17.4836 19.4426 17.4769C19.3106 17.4702 19.1813 17.4375 19.0621 17.3806C18.9429 17.3236 18.8362 17.2436 18.7481 17.1452C18.6599 17.0468 18.5922 16.9319 18.5487 16.8072C18.5053 16.6824 18.487 16.5503 18.4949 16.4184C18.5028 16.2865 18.5367 16.1576 18.5948 16.0389C18.6528 15.9202 18.7338 15.8142 18.833 15.727C19.3574 15.258 19.777 14.6837 20.0642 14.0414C20.3515 13.3992 20.5 12.7036 20.5 12C20.5 10.52 19.858 9.19001 18.833 8.27302C18.6354 8.09611 18.5162 7.84797 18.5016 7.58317C18.487 7.31837 18.5781 7.05861 18.755 6.86102ZM18.167 9.01902C18.5864 9.39419 18.9219 9.85362 19.1515 10.3673C19.3812 10.881 19.5 11.4373 19.5 12C19.5 12.5627 19.3812 13.1191 19.1515 13.6327C18.9219 14.1464 18.5864 14.6058 18.167 14.981C17.9774 15.1494 17.7308 15.2395 17.4773 15.233C17.2237 15.2265 16.9821 15.1239 16.8014 14.9459C16.6206 14.768 16.5143 14.528 16.5038 14.2746C16.4933 14.0212 16.5796 13.7733 16.745 13.581L16.833 13.491C17.243 13.123 17.5 12.592 17.5 12C17.5002 11.4881 17.304 10.9957 16.952 10.624L16.833 10.509C16.6382 10.3314 16.5215 10.084 16.5082 9.82073C16.4949 9.55745 16.586 9.29957 16.7619 9.10317C16.9377 8.90677 17.184 8.78775 17.4471 8.77199C17.7103 8.75623 17.969 8.84501 18.167 9.01902Z" fill="white"/>
</g>
<defs>
<clipPath id="clip0_226_1232">
<rect width="24" height="24" fill="white" transform="translate(0.5)"/>
</clipPath>
</defs>
</svg>
