<svg width="24" height="24" viewBox="0 0 24 24" fill="none" xmlns="http://www.w3.org/2000/svg">
<path d="M20.2142 3.7285C18.0714 1.53516 15.2183 0.333496 12.1819 0.333496C5.92561 0.333496 0.826652 5.52516 0.826652 11.8952C0.826652 13.9368 1.35374 15.9202 2.33915 17.6702L0.734985 23.6668L6.75061 22.0568C8.41207 22.9785 10.2798 23.4685 12.1819 23.4685C18.4381 23.4685 23.5371 18.2768 23.5371 11.9068C23.5371 8.81516 22.3569 5.91016 20.2142 3.7285ZM12.1819 21.5085C10.486 21.5085 8.82457 21.0418 7.36936 20.1668L7.02561 19.9568L3.45061 20.9135L4.40165 17.3668L4.17249 17.0052C3.2329 15.4768 2.72874 13.7035 2.72874 11.8952C2.72874 6.5985 6.96832 2.28183 12.1704 2.28183C14.6912 2.28183 17.0631 3.28516 18.8392 5.10516C20.6266 6.92516 21.6006 9.34016 21.6006 11.9068C21.6235 17.2035 17.3839 21.5085 12.1819 21.5085ZM17.361 14.3218C17.0746 14.1818 15.6767 13.4818 15.4246 13.3768C15.161 13.2835 14.9777 13.2368 14.7829 13.5168C14.5881 13.8085 14.0496 14.4618 13.8892 14.6485C13.7287 14.8468 13.5569 14.8702 13.2704 14.7185C12.9839 14.5785 12.0673 14.2635 10.9902 13.2835C10.1423 12.5135 9.58082 11.5685 9.40894 11.2768C9.24853 10.9852 9.38603 10.8335 9.53498 10.6818C9.66103 10.5535 9.82144 10.3435 9.95894 10.1802C10.0964 10.0168 10.1537 9.8885 10.2454 9.70183C10.3371 9.5035 10.2912 9.34016 10.2225 9.20016C10.1537 9.06016 9.58082 7.63683 9.35165 7.0535C9.12248 6.4935 8.88186 6.5635 8.70998 6.55183C8.53811 6.55183 8.35478 6.55183 8.15998 6.55183C7.96519 6.55183 7.66728 6.62183 7.40373 6.9135C7.15165 7.20516 6.41832 7.90516 6.41832 9.3285C6.41832 10.7518 7.43811 12.1285 7.57561 12.3152C7.71311 12.5135 9.58082 15.4302 12.4225 16.6785C13.0985 16.9818 13.6256 17.1568 14.0381 17.2852C14.7142 17.5068 15.3329 17.4718 15.8256 17.4018C16.3756 17.3202 17.51 16.7018 17.7391 16.0252C17.9798 15.3485 17.9798 14.7768 17.8996 14.6485C17.8194 14.5202 17.6475 14.4618 17.361 14.3218Z" fill="white"/>
</svg>
