<svg width="25" height="20" viewBox="0 0 25 20" fill="none" xmlns="http://www.w3.org/2000/svg">
<path d="M14.9277 10.0003L10.9172 12.3337V7.66699L14.9277 10.0003Z" fill="white" stroke="white" stroke-width="1.75" stroke-linecap="round" stroke-linejoin="round"/>
<path d="M1.17773 10.8256V9.17364C1.17773 5.79614 1.17773 4.10681 2.21471 3.02064C3.25284 1.93331 4.8868 1.88664 8.15357 1.79214C9.70044 1.74781 11.2817 1.71631 12.6361 1.71631C13.9904 1.71631 15.5705 1.74781 17.1186 1.79214C20.3853 1.88664 22.0193 1.93331 23.0563 3.02064C24.0933 4.10798 24.0944 5.79731 24.0944 9.17364V10.8245C24.0944 14.2031 24.0944 15.8913 23.0574 16.9786C22.0193 18.0648 20.3865 18.1126 17.1186 18.206C15.5717 18.2515 13.9904 18.283 12.6361 18.283C11.2817 18.283 9.70159 18.2515 8.15357 18.206C4.8868 18.1126 3.25284 18.066 2.21471 16.9786C1.17659 15.8913 1.17773 14.202 1.17773 10.8256Z" stroke="white" stroke-width="1.75"/>
</svg>
